<mxfile host="app.diagrams.net" modified="2024-01-13T16:25:27.470Z" agent="Mozilla/5.0 (Macintosh; Intel Mac OS X 10_15_7) AppleWebKit/537.36 (KHTML, like Gecko) Chrome/120.0.0.0 Safari/537.36" version="22.1.18" etag="JVVT7vgkcDlKKExl66-u" type="github">
  <diagram name="Page-1" id="PwfnWvD9wjche3ETHrIq">
    <mxGraphModel>
      <root>
        <mxCell id="0" />
        <mxCell id="1" parent="0" />
        <mxCell id="2" value="Documents" style="whiteSpace=wrap;strokeWidth=2;" vertex="1" parent="1">
          <mxGeometry x="107" width="94" height="34" as="geometry" />
        </mxCell>
        <mxCell id="3" value="Folder1" style="whiteSpace=wrap;strokeWidth=2;" vertex="1" parent="1">
          <mxGeometry y="84" width="69" height="34" as="geometry" />
        </mxCell>
        <mxCell id="4" value="Folder2" style="whiteSpace=wrap;strokeWidth=2;" vertex="1" parent="1">
          <mxGeometry x="119" y="84" width="69" height="34" as="geometry" />
        </mxCell>
        <mxCell id="5" value="Folder3" style="whiteSpace=wrap;strokeWidth=2;" vertex="1" parent="1">
          <mxGeometry x="238" y="84" width="69" height="34" as="geometry" />
        </mxCell>
        <mxCell id="6" value="File1" style="whiteSpace=wrap;strokeWidth=2;" vertex="1" parent="1">
          <mxGeometry x="10" y="167" width="50" height="34" as="geometry" />
        </mxCell>
        <mxCell id="7" value="File2" style="whiteSpace=wrap;strokeWidth=2;" vertex="1" parent="1">
          <mxGeometry x="129" y="167" width="50" height="34" as="geometry" />
        </mxCell>
        <mxCell id="8" value="File3" style="whiteSpace=wrap;strokeWidth=2;" vertex="1" parent="1">
          <mxGeometry x="247" y="167" width="50" height="34" as="geometry" />
        </mxCell>
        <mxCell id="9" value="" style="curved=1;startArrow=none;endArrow=block;exitX=-0.004114029255319149;exitY=0.9759281241065978;entryX=0.49966032608695654;entryY=-0.014705882352941176;" edge="1" parent="1" source="2" target="3">
          <mxGeometry relative="1" as="geometry">
            <Array as="points">
              <mxPoint x="34" y="59" />
            </Array>
          </mxGeometry>
        </mxCell>
        <mxCell id="10" value="" style="curved=1;startArrow=none;endArrow=block;exitX=0.4939328457446808;exitY=0.9852941176470589;entryX=0.49898097826086957;entryY=-0.014705882352941176;" edge="1" parent="1" source="2" target="4">
          <mxGeometry relative="1" as="geometry">
            <Array as="points" />
          </mxGeometry>
        </mxCell>
        <mxCell id="11" value="" style="curved=1;startArrow=none;endArrow=block;exitX=0.9919797207446809;exitY=0.9759281241065978;entryX=0.4983016304347826;entryY=-0.014705882352941176;" edge="1" parent="1" source="2" target="5">
          <mxGeometry relative="1" as="geometry">
            <Array as="points">
              <mxPoint x="272" y="59" />
            </Array>
          </mxGeometry>
        </mxCell>
        <mxCell id="12" value="" style="curved=1;startArrow=none;endArrow=block;exitX=0.49966032608695654;exitY=0.9705882352941176;entryX=0.48953125;entryY=0;" edge="1" parent="1" source="3" target="6">
          <mxGeometry relative="1" as="geometry">
            <Array as="points" />
          </mxGeometry>
        </mxCell>
        <mxCell id="13" value="" style="curved=1;startArrow=none;endArrow=block;exitX=0.49898097826086957;exitY=0.9705882352941176;entryX=0.48859375;entryY=0;" edge="1" parent="1" source="4" target="7">
          <mxGeometry relative="1" as="geometry">
            <Array as="points" />
          </mxGeometry>
        </mxCell>
        <mxCell id="14" value="" style="curved=1;startArrow=none;endArrow=block;exitX=0.4983016304347826;exitY=0.9705882352941176;entryX=0.50765625;entryY=0;" edge="1" parent="1" source="5" target="8">
          <mxGeometry relative="1" as="geometry">
            <Array as="points" />
          </mxGeometry>
        </mxCell>
      </root>
    </mxGraphModel>
  </diagram>
</mxfile>
